<svg width="520" height="230" viewBox="0 0 520 230" fill="none" xmlns="http://www.w3.org/2000/svg"><rect width="520" height="230" fill="#fff"/><g transform="translate(72 20)"><rect x="0" y="42" width="150" height="155" fill="#DCDCD7" stroke="#8F8F87" stroke-width="2"/><rect x="78" y="42" width="72" height="155" fill="#EFEFEC" stroke="#8F8F87" stroke-width="2"/><rect x="20" y="72" width="44" height="24" fill="#C4C4BE" stroke="#8F8F87"/><circle cx="105" cy="75" r="8" fill="#34A853"/><circle cx="126" cy="75" r="8" fill="#E3BC08"/><circle cx="105" cy="103" r="8" fill="#D43324"/><rect x="92" y="132" width="42" height="40" fill="#BDBDB5" stroke="#8F8F87"/><path d="M150 42L182 59V213L150 197V42Z" fill="#BEBEB7" stroke="#8F8F87" stroke-width="2"/></g><g transform="translate(280 108)" stroke="#586958" stroke-width="2"><rect width="64" height="92" fill="#B7C5B6"/><rect x="11" y="14" width="42" height="13" fill="#E6E6E1"/><circle cx="20" cy="46" r="5" fill="#35A853"/><circle cx="38" cy="46" r="5" fill="#F7E900"/><rect x="14" y="64" width="36" height="16" fill="#758573"/></g><g transform="translate(376 70)" stroke="#586958" stroke-width="2"><rect width="44" height="130" fill="#B7C5B6"/><rect x="8" y="11" width="28" height="14" fill="#E6E6E1"/><rect x="10" y="39" width="24" height="72" fill="#758573"/></g><g transform="translate(444 146)" stroke="#586958" stroke-width="2"><rect width="48" height="54" fill="#B7C5B6"/><circle cx="18" cy="20" r="5" fill="#35A853"/><circle cx="31" cy="20" r="5" fill="#D43324"/></g></svg>
