<svg width="520" height="230" viewBox="0 0 520 230" fill="none" xmlns="http://www.w3.org/2000/svg"><rect width="520" height="230" fill="#fff"/><g transform="translate(32 42)"><rect width="130" height="82" fill="#2D2D2D" stroke="#AAA" stroke-width="3"/><rect x="16" y="15" width="96" height="8" fill="#F7E900"/><rect x="16" y="36" width="70" height="7" fill="#D8D8D0"/><rect x="50" y="82" width="30" height="28" fill="#555"/><rect x="22" y="110" width="88" height="10" fill="#333"/></g><g transform="translate(178 42)"><rect width="130" height="82" fill="#2D2D2D" stroke="#AAA" stroke-width="3"/><rect x="16" y="15" width="96" height="8" fill="#F7E900"/><rect x="16" y="36" width="70" height="7" fill="#D8D8D0"/><rect x="50" y="82" width="30" height="28" fill="#555"/><rect x="22" y="110" width="88" height="10" fill="#333"/></g><g transform="translate(333 36)"><path d="M57 0C82 0 96 18 96 42C96 65 82 82 57 82C33 82 18 65 18 42C18 18 33 0 57 0Z" fill="#D8C0A4"/><path d="M20 28C30 4 78 -5 98 29C67 23 43 23 20 28Z" fill="#E6E6E1"/><path d="M14 82H104L136 194H0L14 82Z" fill="#2D2D2D"/><text x="27" y="137" font-family="Arial Black, Arial" font-size="18" fill="#F7E900" transform="rotate(-5 27 137)">avtomatika</text><rect x="33" y="64" width="48" height="20" fill="#222"/></g><rect x="40" y="184" width="428" height="28" fill="#252525"/></svg>
