<svg width="520" height="290" viewBox="0 0 520 290" fill="none" xmlns="http://www.w3.org/2000/svg"><rect width="520" height="290" fill="#F4F4F2"/><g stroke="#B9B9B2" stroke-width="1"><path d="M51 206L398 52"/><path d="M99 225L448 73"/><path d="M161 238L492 96"/></g><g transform="translate(180 38)"><rect x="20" y="58" width="220" height="112" fill="#E6E6E1" stroke="#9C9C94" stroke-width="2"/><rect x="64" y="15" width="130" height="54" fill="#EFEFEB" stroke="#9C9C94" stroke-width="2"/><rect x="238" y="76" width="58" height="96" fill="#D3D3CD" stroke="#9C9C94" stroke-width="2"/><rect x="50" y="84" width="90" height="52" fill="#2B2B2B"/><rect x="158" y="86" width="46" height="36" fill="#C7C7BE" stroke="#9C9C94"/><circle cx="168" cy="138" r="6" fill="#F7E900"/><circle cx="188" cy="138" r="6" fill="#F7E900"/><rect x="82" y="26" width="28" height="22" fill="#D8D8D2" stroke="#9C9C94"/><rect x="126" y="26" width="28" height="22" fill="#D8D8D2" stroke="#9C9C94"/><rect x="18" y="172" width="285" height="20" fill="#B8B8B0"/></g><g transform="translate(256 190)"><rect x="0" y="42" width="168" height="36" fill="#252525"/><rect x="16" y="0" width="66" height="46" fill="#333"/><rect x="88" y="0" width="66" height="46" fill="#333"/><rect x="25" y="9" width="48" height="5" fill="#F7E900"/><rect x="25" y="21" width="35" height="4" fill="#D6D6D0"/><rect x="97" y="9" width="48" height="5" fill="#F7E900"/><rect x="97" y="21" width="35" height="4" fill="#D6D6D0"/></g></svg>
